<?xml version="1.0" encoding="utf-8"?>
<!-- Generator: Adobe Illustrator 24.2.0, SVG Export Plug-In . SVG Version: 6.00 Build 0)  -->
<svg version="1.1" id="Layer_1" xmlns="http://www.w3.org/2000/svg" xmlns:xlink="http://www.w3.org/1999/xlink" x="0px" y="0px"
	 viewBox="0 0 632 219" style="enable-background:new 0 0 632 219;" xml:space="preserve">
<text transform="matrix(1 0 0 1 2689 1942.5029)" style="font-family:'CenturyGothic'; font-size:171.202px; letter-spacing:-3;">h  point</text>
<g>
	<g>
		<path d="M0.41,32.98h11.7v62.85c4.74-6.24,9.95-10.91,15.63-14c5.68-3.09,11.84-4.64,18.47-4.64c6.8,0,12.83,1.73,18.1,5.18
			c5.27,3.46,9.15,8.09,11.66,13.92c2.51,5.82,3.76,14.95,3.76,27.38v46.81h-11.7V127.1c0-10.48-0.42-17.47-1.25-20.98
			c-1.45-6.02-4.08-10.55-7.9-13.58c-3.82-3.04-8.82-4.56-15.01-4.56c-7.08,0-13.42,2.34-19.02,7.02
			c-5.6,4.68-9.29,10.48-11.08,17.39c-1.12,4.46-1.67,12.71-1.67,24.74v33.35H0.41V32.98z"/>
		<path d="M189.51,79.53h11.7v16.72c4.62-6.35,9.94-11.12,15.95-14.29c6.01-3.18,12.72-4.77,20.13-4.77
			c12.92,0,23.97,4.65,33.15,13.96c9.19,9.31,13.78,20.51,13.78,33.6c0,13.38-4.55,24.73-13.66,34.07c-9.1,9.33-20.08,14-32.94,14
			c-7.24,0-13.89-1.5-19.96-4.51c-6.07-3.01-11.55-7.49-16.45-13.46v48.9h-11.7V79.53z M236.33,88.48
			c-10.12,0-18.64,3.54-25.56,10.61c-6.92,7.07-10.38,15.87-10.38,26.39c0,6.9,1.54,13.11,4.63,18.62
			c3.08,5.51,7.5,9.88,13.26,13.11c5.76,3.23,11.83,4.84,18.22,4.84c6.28,0,12.19-1.63,17.72-4.88c5.53-3.26,9.94-7.81,13.22-13.65
			c3.28-5.84,4.92-11.97,4.92-18.37c0-6.46-1.63-12.58-4.88-18.37s-7.63-10.29-13.13-13.49C248.84,90.08,242.83,88.48,236.33,88.48z
			"/>
		<path d="M345.75,77.19c14.01,0,25.63,5.07,34.84,15.21c8.37,9.25,12.56,20.2,12.56,32.85c0,12.71-4.42,23.81-13.27,33.31
			c-8.85,9.5-20.22,14.25-34.13,14.25c-13.96,0-25.36-4.75-34.21-14.25c-8.85-9.5-13.27-20.61-13.27-33.31
			c0-12.59,4.19-23.52,12.56-32.77C320.05,82.29,331.69,77.19,345.75,77.19z M345.71,88.65c-9.73,0-18.09,3.59-25.08,10.78
			c-6.99,7.19-10.49,15.88-10.49,26.08c0,6.58,1.59,12.71,4.78,18.39c3.19,5.68,7.49,10.07,12.92,13.17
			c5.42,3.09,11.38,4.64,17.87,4.64s12.44-1.55,17.87-4.64c5.42-3.09,9.73-7.48,12.92-13.17c3.19-5.68,4.78-11.81,4.78-18.39
			c0-10.2-3.51-18.89-10.53-26.08S355.39,88.65,345.71,88.65z"/>
		<path d="M409.62,77.53h11.7v92.95h-11.7V77.53z"/>
		<path d="M409.62,36.98h11.7v21.5h-11.7V36.98z"/>
		<path d="M442.23,79.53h11.7v16.3c4.68-6.24,9.86-10.91,15.55-14s11.87-4.64,18.56-4.64c6.8,0,12.83,1.73,18.1,5.18
			c5.27,3.46,9.15,8.11,11.66,13.96s3.76,14.96,3.76,27.33v46.81h-11.7V127.1c0-10.48-0.43-17.47-1.3-20.98
			c-1.36-6.02-3.96-10.55-7.8-13.58c-3.85-3.04-8.86-4.56-15.05-4.56c-7.08,0-13.42,2.34-19.02,7.02
			c-5.6,4.68-9.29,10.48-11.08,17.39c-1.12,4.51-1.67,12.76-1.67,24.74v33.35h-11.7V79.53z"/>
		<path d="M553.41,45.76h11.7v33.77h18.56v10.12h-18.56v80.84h-11.7V89.65h-15.97V79.53h15.97V45.76z"/>
	</g>
	<circle cx="94.37" cy="32.98" r="33"/>
</g>
</svg>
